<svg width="25" height="25" viewBox="0 0 25 25" fill="none" xmlns="http://www.w3.org/2000/svg">
<g clip-path="url(#clip0_18_223)">
<path d="M1.5625 6.57979e-06L0 1.56251L3.4375 6.37657C3.58221 6.57929 3.77329 6.74449 3.99481 6.85837C4.21633 6.97225 4.46186 7.03153 4.71094 7.03126H4.82031C5.02575 7.0311 5.2292 7.07145 5.41903 7.15C5.60885 7.22856 5.78132 7.34378 5.92656 7.48907L10.1062 11.6688L6.01719 15.8156C5.3178 15.6098 4.58007 15.5697 3.8625 15.6986C3.14493 15.8275 2.46727 16.1219 1.88328 16.5583C1.29929 16.9947 0.825032 17.5613 0.49813 18.2129C0.171228 18.8646 0.000675314 19.5835 0 20.3125C0.000936661 20.9843 0.146256 21.648 0.426112 22.2587C0.705968 22.8694 1.11382 23.4129 1.62204 23.8522C2.13026 24.2915 2.72697 24.6165 3.37174 24.805C4.01652 24.9936 4.69429 25.0414 5.35914 24.9451C6.02398 24.8488 6.66038 24.6108 7.2252 24.2471C7.79002 23.8834 8.27007 23.4026 8.63282 22.8372C8.99558 22.2718 9.23257 21.635 9.32773 20.97C9.42289 20.305 9.374 19.6273 9.18437 18.9828L13.3312 14.8938L14.8438 16.4063L14.3672 17.8344C14.2756 18.1097 14.2625 18.405 14.3293 18.6873C14.3961 18.9696 14.5401 19.2278 14.7453 19.4328L19.8547 24.5422C19.9995 24.6878 20.1716 24.8033 20.3612 24.8822C20.5508 24.961 20.754 25.0016 20.9594 25.0016C21.1647 25.0016 21.368 24.961 21.5576 24.8822C21.7472 24.8033 21.9193 24.6878 22.0641 24.5422L24.5422 22.0641C24.6878 21.9193 24.8033 21.7472 24.8822 21.5576C24.961 21.368 25.0016 21.1647 25.0016 20.9594C25.0016 20.7541 24.961 20.5508 24.8822 20.3612C24.8033 20.1716 24.6878 19.9995 24.5422 19.8547L19.4328 14.7453C19.2277 14.5401 18.9696 14.3961 18.6873 14.3293C18.405 14.2625 18.1096 14.2756 17.8344 14.3672L16.4062 14.8438L14.9062 13.3438L19.0938 9.21407C19.7884 9.3995 20.5164 9.42292 21.2215 9.28253C21.9267 9.14213 22.5902 8.84167 23.1609 8.40431C23.7315 7.96694 24.1941 7.40437 24.513 6.75995C24.8319 6.11553 24.9985 5.4065 25 4.68751C25 4.26563 24.9469 3.86094 24.8406 3.47344L21.4969 6.81876L18.75 6.25001L18.1812 3.50469L21.5266 0.159382C20.7308 -0.0545852 19.8926 -0.0549846 19.0966 0.158224C18.3006 0.371432 17.5749 0.790713 16.9926 1.3738C16.4103 1.95689 15.992 2.68318 15.7799 3.47947C15.5678 4.27575 15.5693 5.11388 15.7844 5.90938L11.6594 10.0938L7.48906 5.92657C7.19602 5.63361 7.03134 5.23625 7.03125 4.82188V4.71094C7.03127 4.46213 6.97188 4.21691 6.858 3.99569C6.74413 3.77446 6.57907 3.58363 6.37656 3.43907L1.5625 6.57979e-06ZM16.6344 16.6344C16.7069 16.5616 16.7932 16.5039 16.8881 16.4645C16.983 16.4251 17.0847 16.4049 17.1875 16.4049C17.2903 16.4049 17.392 16.4251 17.4869 16.4645C17.5818 16.5039 17.6681 16.5616 17.7406 16.6344L22.2937 21.1891C22.4361 21.3364 22.5148 21.5338 22.513 21.7386C22.5112 21.9434 22.4291 22.1394 22.2842 22.2842C22.1394 22.4291 21.9434 22.5113 21.7386 22.513C21.5338 22.5148 21.3364 22.4361 21.1891 22.2938L16.6344 17.7406C16.5616 17.6681 16.5039 17.5818 16.4645 17.4869C16.4251 17.392 16.4049 17.2903 16.4049 17.1875C16.4049 17.0847 16.4251 16.983 16.4645 16.8881C16.5039 16.7932 16.5616 16.707 16.6344 16.6344ZM4.6875 17.1875L5.42344 17.5656L6.25 17.6063L6.69844 18.3016L7.39375 18.75L7.43437 19.5766L7.8125 20.3125L7.43437 21.0484L7.39375 21.875L6.69844 22.3234L6.25 23.0188L5.42344 23.0594L4.6875 23.4375L3.95156 23.0594L3.125 23.0188L2.67656 22.3234L1.98125 21.875L1.94062 21.0484L1.5625 20.3125L1.94062 19.5766L1.98125 18.75L2.67656 18.3016L3.125 17.6063L3.95156 17.5656L4.6875 17.1875Z" fill="#240905"/>
</g>
<defs>
<clipPath id="clip0_18_223">
<rect width="25" height="25" fill="white"/>
</clipPath>
</defs>
</svg>
